<?xml version="1.0" standalone="no"?>
<!DOCTYPE svg PUBLIC "-//W3C//DTD SVG 20010904//EN"
 "http://www.w3.org/TR/2001/REC-SVG-20010904/DTD/svg10.dtd">
<svg version="1.0" xmlns="http://www.w3.org/2000/svg"
 width="512.000000pt" height="512.000000pt" viewBox="0 0 512.000000 512.000000"
 preserveAspectRatio="xMidYMid meet">
<metadata>
Created by potrace 1.11, written by Peter Selinger 2001-2013
</metadata>
<g transform="translate(0.000000,512.000000) scale(0.100000,-0.100000)"
fill="#000000" stroke="none">
<path d="M3725 4695 c-357 -58 -1248 -199 -1980 -315 -731 -116 -1346 -215
-1366 -220 -41 -11 -113 -70 -134 -110 -35 -68 -36 -106 -3 -316 l31 -200 -40
-55 c-108 -143 -97 -309 29 -431 l58 -58 0 -1231 c0 -938 3 -1242 12 -1273 16
-55 99 -138 154 -154 60 -18 4088 -18 4148 0 55 16 138 99 154 154 9 32 12
375 12 1458 l0 1416 -1662 2 -1662 3 740 117 c406 65 1142 181 1634 259 492
78 898 145 901 148 9 8 -107 726 -122 765 -33 77 -115 135 -203 141 -33 3
-285 -34 -701 -100z m600 -257 c20 -19 28 -40 40 -108 20 -112 19 -132 -6
-164 -18 -23 -28 -27 -62 -24 -56 4 -73 32 -91 148 -17 105 -11 135 34 157 36
18 55 16 85 -9z m-419 -48 c42 -15 51 -36 69 -150 15 -93 15 -103 0 -126 -23
-36 -59 -47 -99 -30 -39 16 -49 41 -67 163 -10 73 -9 86 5 109 10 14 27 29 39
34 12 5 22 9 23 9 1 1 14 -4 30 -9z m-368 -82 c15 -17 25 -50 37 -122 17 -110
15 -127 -22 -156 -33 -26 -66 -25 -98 3 -21 18 -28 38 -40 112 -20 121 -19
132 10 160 32 33 83 34 113 3z m-394 -61 c17 -17 26 -44 36 -108 18 -115 17
-135 -10 -164 -42 -45 -121 -23 -135 38 -10 43 -25 152 -25 180 0 66 87 101
134 54z m-399 -59 c20 -19 28 -40 40 -108 21 -118 19 -142 -9 -169 -33 -31
-92 -26 -117 9 -23 31 -51 203 -39 235 11 29 47 55 77 55 12 0 33 -10 48 -22z
m-405 -53 c33 -17 35 -20 54 -143 20 -126 3 -166 -70 -166 -53 0 -72 27 -89
124 -21 119 -20 146 10 175 28 29 54 31 95 10z m-385 -77 c22 -20 29 -38 43
-126 14 -92 15 -106 1 -130 -28 -50 -104 -55 -133 -9 -21 31 -47 203 -36 232
11 29 47 55 77 55 12 0 34 -10 48 -22z m-394 -57 c18 -15 26 -38 40 -121 18
-109 14 -141 -19 -166 -42 -32 -115 -4 -127 49 -10 43 -25 152 -25 180 0 62
81 99 131 58z m-388 -70 c13 -12 23 -51 34 -125 16 -104 16 -107 -4 -134 -28
-38 -90 -43 -120 -10 -29 32 -58 209 -40 247 24 51 89 62 130 22z m-395 -66
c19 -24 44 -145 44 -213 0 -46 -30 -76 -77 -76 -54 0 -73 26 -90 124 -20 114
-19 139 7 167 30 33 90 32 116 -2z m-193 -475 c63 -61 71 -148 18 -210 -71
-85 -188 -80 -255 10 -47 63 -27 169 40 216 32 22 45 25 99 22 56 -4 67 -8 98
-38z m273 -386 c20 -23 22 -35 22 -128 0 -89 -3 -107 -21 -130 -16 -20 -29
-26 -59 -26 -30 0 -43 6 -59 26 -18 23 -21 41 -21 128 0 108 10 139 54 156 29
12 57 3 84 -26z m400 0 c20 -23 22 -35 22 -128 0 -89 -3 -107 -21 -130 -16
-20 -29 -26 -59 -26 -30 0 -43 6 -59 26 -18 23 -21 41 -21 128 0 108 10 139
54 156 29 12 57 3 84 -26z m400 0 c20 -23 22 -35 22 -128 0 -89 -3 -107 -21
-130 -16 -20 -29 -26 -59 -26 -30 0 -43 6 -59 26 -18 23 -21 41 -21 128 0 108
10 139 54 156 29 12 57 3 84 -26z m400 0 c20 -23 22 -35 22 -128 0 -89 -3
-107 -21 -130 -16 -20 -29 -26 -59 -26 -30 0 -43 6 -59 26 -18 23 -21 41 -21
128 0 108 10 139 54 156 29 12 57 3 84 -26z m400 0 c20 -23 22 -35 22 -128 0
-89 -3 -107 -21 -130 -16 -20 -29 -26 -59 -26 -30 0 -43 6 -59 26 -18 23 -21
41 -21 128 0 108 10 139 54 156 29 12 57 3 84 -26z m400 0 c20 -23 22 -35 22
-128 0 -89 -3 -107 -21 -130 -16 -20 -29 -26 -59 -26 -30 0 -43 6 -59 26 -18
23 -21 41 -21 128 0 108 10 139 54 156 29 12 57 3 84 -26z m400 0 c20 -23 22
-35 22 -128 0 -89 -3 -107 -21 -130 -16 -20 -29 -26 -59 -26 -30 0 -43 6 -59
26 -18 23 -21 41 -21 128 0 108 10 139 54 156 29 12 57 3 84 -26z m400 0 c20
-23 22 -35 22 -128 0 -89 -3 -107 -21 -130 -16 -20 -29 -26 -59 -26 -30 0 -43
6 -59 26 -18 23 -21 41 -21 128 0 108 10 139 54 156 29 12 57 3 84 -26z m400
0 c20 -23 22 -35 22 -128 0 -89 -3 -107 -21 -130 -16 -20 -29 -26 -59 -26 -30
0 -43 6 -59 26 -18 23 -21 41 -21 128 0 108 10 139 54 156 29 12 57 3 84 -26z
m400 0 c20 -23 22 -35 22 -128 0 -89 -3 -107 -21 -130 -16 -20 -29 -26 -59
-26 -30 0 -43 6 -59 26 -18 23 -21 41 -21 128 0 108 10 139 54 156 29 12 57 3
84 -26z m182 -1538 l0 -933 -25 -27 -24 -26 -2031 0 -2031 0 -24 25 -25 24 0
936 0 935 2080 0 2080 0 0 -934z"/>
<path d="M825 1895 c-16 -15 -25 -36 -25 -55 0 -19 9 -40 25 -55 l24 -25 431
0 431 0 24 25 c16 15 25 36 25 55 0 19 -9 40 -25 55 l-24 25 -431 0 -431 0
-24 -25z"/>
<path d="M1945 1895 c-16 -15 -25 -36 -25 -55 0 -19 9 -40 25 -55 24 -25 26
-25 215 -25 189 0 191 0 215 25 16 15 25 36 25 55 0 19 -9 40 -25 55 -24 25
-26 25 -215 25 -189 0 -191 0 -215 -25z"/>
<path d="M2905 1895 c-16 -15 -25 -36 -25 -55 0 -19 9 -40 25 -55 l24 -25 671
0 671 0 24 25 c33 32 33 78 0 110 l-24 25 -671 0 -671 0 -24 -25z"/>
<path d="M1145 1575 c-16 -15 -25 -36 -25 -55 0 -19 9 -40 25 -55 l24 -25 591
0 591 0 24 25 c33 32 33 78 0 110 l-24 25 -591 0 -591 0 -24 -25z"/>
<path d="M2905 1575 c-16 -15 -25 -36 -25 -55 0 -19 9 -40 25 -55 l24 -25 351
0 351 0 24 25 c16 15 25 36 25 55 0 19 -9 40 -25 55 l-24 25 -351 0 -351 0
-24 -25z"/>
<path d="M3865 1575 c-16 -15 -25 -36 -25 -55 0 -19 9 -40 25 -55 24 -25 26
-25 215 -25 189 0 191 0 215 25 16 15 25 36 25 55 0 19 -9 40 -25 55 -24 25
-26 25 -215 25 -189 0 -191 0 -215 -25z"/>
</g>
</svg>
